<svg xmlns="http://www.w3.org/2000/svg" width="48" height="49">
    <path fill="#C0301C" fill-rule="evenodd" d="M23.994.867C10.738.867 0 11.605 0 24.861c0 13.255 10.738 23.994 23.994 23.994s23.994-10.739 23.994-23.994C47.988 11.605 37.25.867 23.994.867zm0 3.428c3.481 0 6.775.883 9.667 2.41L28.466 11.9c-1.419-.482-2.892-.75-4.472-.75-1.553 0-3.053.268-4.472.75l-5.195-5.195c2.892-1.527 6.186-2.41 9.667-2.41zM5.838 34.528c-1.527-2.892-2.41-6.186-2.41-9.667s.883-6.775 2.41-9.667l5.195 5.195c-.482 1.419-.75 2.892-.75 4.472 0 1.553.268 3.053.75 4.472l-5.195 5.195zm18.156 10.899c-3.481 0-6.775-.883-9.667-2.41l5.195-5.195c1.419.482 2.919.75 4.472.75 1.58 0 3.053-.268 4.472-.75l5.195 5.195c-2.892 1.527-6.186 2.41-9.667 2.41zm0-10.283c-5.677 0-10.283-4.606-10.283-10.283s4.606-10.283 10.283-10.283 10.283 4.606 10.283 10.283-4.606 10.283-10.283 10.283zm12.961-5.811c.482-1.419.75-2.919.75-4.472 0-1.553-.268-3.053-.75-4.472l5.195-5.195c1.527 2.892 2.41 6.186 2.41 9.667s-.883 6.775-2.41 9.667l-5.195-5.195z"/>
</svg>
