<svg xmlns="http://www.w3.org/2000/svg" width="53" height="40">
    <path fill="#C0301C" fill-rule="evenodd" d="M16.599 32.724c.375-.377.375-.956 0-1.333L5.254 20 16.599 8.608c.375-.377.375-.956 0-1.333l-1.444-1.449c-.375-.377-.952-.377-1.328 0L.375 19.333c-.375.377-.375.956 0 1.333l13.452 13.508c.376.376.953.376 1.328 0l1.444-1.45zm17.06-30.927c.144-.493-.144-1.015-.635-1.159l-1.79-.494c-.462-.145-.981.145-1.126.638L19.341 38.203c-.144.492.144 1.014.635 1.159l1.79.492c.462.146.981-.144 1.126-.637l10.767-37.42zm18.966 18.869c.375-.377.375-.956 0-1.333L39.173 5.826c-.376-.377-.953-.377-1.328 0l-1.444 1.449c-.375.377-.375.956 0 1.333L47.746 20 36.401 31.391c-.375.377-.375.956 0 1.333l1.444 1.45c.375.376.952.376 1.328 0l13.452-13.508z"/>
</svg>
