<svg xmlns="http://www.w3.org/2000/svg" width="9" height="16">
    <path fill="#FFF" fill-rule="evenodd" d="M8.097.003L6.079-.001c-2.267 0-3.732 1.546-3.732 3.938v1.815H.317c-.175 0-.317.147-.317.327v2.63c0 .181.142.326.317.326h2.03v6.638c0 .181.141.327.317.327h2.647c.176 0 .318-.147.318-.327V9.035h2.372c.176 0 .317-.145.317-.326l.001-2.63c0-.087-.033-.17-.093-.231-.059-.061-.14-.096-.224-.096H5.629V4.213c0-.739.171-1.115 1.108-1.115h1.36c.175 0 .317-.146.317-.326V.329c0-.18-.142-.326-.317-.326z"/>
</svg>
